<?xml version="1.0" encoding="UTF-8" standalone="no"?>
<svg
   xmlns:dc="http://purl.org/dc/elements/1.1/"
   xmlns:cc="http://creativecommons.org/ns#"
   xmlns:rdf="http://www.w3.org/1999/02/22-rdf-syntax-ns#"
   xmlns:svg="http://www.w3.org/2000/svg"
   xmlns="http://www.w3.org/2000/svg"
   xmlns:sodipodi="http://sodipodi.sourceforge.net/DTD/sodipodi-0.dtd"
   xmlns:inkscape="http://www.inkscape.org/namespaces/inkscape"
   version="1.1"
   x="0px"
   y="0px"
   viewBox="0 0 100 100"
   enable-background="new 0 0 100 100"
   xml:space="preserve"
   id="svg2"
   inkscape:version="0.91 r13725"
   sodipodi:docname="noun_147110_cc.svg"
   width="100"
   height="100"
   inkscape:export-filename="C:\Users\hoeftc\Desktop\JenkinsObserver\JenkinsObserver\Resources\noun_147110_cc.png"
   inkscape:export-xdpi="229.5"
   inkscape:export-ydpi="229.5"><metadata
     id="metadata14"><rdf:RDF><cc:Work
         rdf:about=""><dc:format>image/svg+xml</dc:format><dc:type
           rdf:resource="http://purl.org/dc/dcmitype/StillImage" /><dc:title /></cc:Work></rdf:RDF></metadata><defs
     id="defs12" /><sodipodi:namedview
     pagecolor="#ffffff"
     bordercolor="#666666"
     borderopacity="1"
     objecttolerance="10"
     gridtolerance="10"
     guidetolerance="10"
     inkscape:pageopacity="0"
     inkscape:pageshadow="2"
     inkscape:window-width="1920"
     inkscape:window-height="1017"
     id="namedview10"
     showgrid="false"
     inkscape:zoom="7.552"
     inkscape:cx="24.445825"
     inkscape:cy="42.723352"
     inkscape:window-x="-8"
     inkscape:window-y="-8"
     inkscape:window-maximized="1"
     inkscape:current-layer="svg2" /><path
     d="m 62.562144,12.007921 c 6.567018,0 11.999867,5.481642 11.830186,12.126289 3.837995,0.796409 25.128515,21.670663 25.128515,42.920837 0,11.562629 -9.377463,20.937031 -20.93718,20.937031 -11.559717,0 -20.927557,-9.365368 -20.936587,-20.920568 -4.519635,3.33055 -10.774523,3.33055 -15.294157,0 -0.009,11.555638 -9.376585,20.920568 -20.936737,20.920568 -11.560149,0 -20.937029,-9.373964 -20.937029,-20.937032 0,-21.250464 21.290811,-42.123992 25.128513,-42.920836 -0.168952,-6.644648 5.1851,-12.126289 11.830039,-12.126289 6.489825,0 11.758821,5.224424 11.832373,11.696916 0.485449,-0.02971 0.974244,-0.02971 1.45984,0 0.07341,-6.47249 5.265209,-11.696916 11.832224,-11.696916 z m 16.021521,41.223154 c -33.974562,47.457535 -16.987281,23.728765 0,0 z"
     id="path4-4"
     inkscape:connector-curvature="0"
     style="clip-rule:evenodd;fill:#ffffff;fill-opacity:1;fill-rule:evenodd"
     sodipodi:nodetypes="ccssccsscscccccc" /><path
     d="m 62.562144,12.007922 c 6.567018,0 11.999867,5.481642 11.830186,12.126289 3.837995,0.796409 25.128515,21.670663 25.128515,42.920836 0,11.56263 -9.377463,20.937032 -20.93718,20.937032 -11.559717,0 -20.927557,-9.365368 -20.936587,-20.920568 -4.519635,3.33055 -10.774523,3.33055 -15.294157,0 -0.009,11.555638 -9.376585,20.920568 -20.936737,20.920568 -11.5601497,0 -20.93702934,-9.373964 -20.93702934,-20.937032 0,-21.250464 21.29081134,-42.123992 25.12851334,-42.920836 -0.168952,-6.644648 5.1851,-12.126289 11.830039,-12.126289 6.489825,0 11.758821,5.224424 11.832373,11.696916 0.485449,-0.02971 0.974244,-0.02971 1.45984,0 0.07341,-6.47249 5.265209,-11.696916 11.832224,-11.696916 l 0,0 z M 49.999927,52.672074 c -2.211681,0 -4.005201,1.79352 -4.005201,4.005203 0,2.211677 1.79352,4.005197 4.005201,4.005197 2.211678,0 4.005199,-1.79352 4.005199,-4.005197 0,-2.211682 -1.793521,-4.005203 -4.005199,-4.005203 l 0,0 z m 28.583738,0.559001 c -8.546674,0 -15.475335,6.102981 -15.475335,14.649656 0,8.546675 6.928661,14.649657 15.475335,14.649657 8.546675,0 15.475349,-6.102973 15.475349,-14.649657 0,-8.546683 -6.928665,-14.649656 -15.475349,-14.649656 l 0,0 z m -57.167481,0 c -8.546678,0 -15.475341,6.102981 -15.475341,14.649656 0,8.546675 6.928663,14.649657 15.475341,14.649657 8.546679,0 15.475342,-6.102973 15.475342,-14.649657 0,-8.546683 -6.928665,-14.649656 -15.475342,-14.649656 z"
     id="path4"
     inkscape:connector-curvature="0"
     style="clip-rule:evenodd;fill-rule:evenodd;fill:#d33833;fill-opacity:1" /></svg>